<svg viewBox="0 0 63.33 58.5">
  <defs>
    <style>.cls-1,.cls-2{fill:#fff;}.cls-2{stroke:#000;stroke-miterlimit:10;}</style>
  </defs>
  <path d="M1.15,54.41,1,8.89C3,4.6,10.68,1.5,19.33,1.5c6.42,0,11.68,1.57,16.1,4.8,5.94,4.35,6.32,9.62,6.62,13.85.2,2.72.37,5.07,2.1,6.3a39.46,39.46,0,0,0,5,2.79c3.26,1.63,7,3.48,9.75,6.59,3.45,3.83,5,15.21,4.2,18.58Z" transform="translate(-0.49 -1)"/>
  <path d="M19.33,2c6.31,0,11.47,1.54,15.8,4.71,5.76,4.21,6.13,9.35,6.42,13.47.21,2.85.38,5.31,2.31,6.68a39.34,39.34,0,0,0,5,2.82c3.23,1.62,6.88,3.45,9.61,6.48,3.26,3.62,4.82,14.11,4.17,17.75h-61L1.57,31.84,1.49,9c2-4,9.58-7,17.84-7h0m0-1h0C10.32,1,2.47,4.35.49,8.78Q.57,31.85.65,54.91h62.8c1.16-3.15-.51-15.32-4.19-19.42C54.84,30.58,48.35,28.81,44.44,26S45.72,13.21,35.72,5.9C32.52,3.56,27.54,1,19.33,1Z" transform="translate(-0.49 -1)"/>
  <path class="cls-1" d="M3.39,54,3.3,8.41,7.9,5.6,7.85,30.06h5.52l-.11-26,4.09-.77L17.83,54H13.37V35.35H7.85V54Z" transform="translate(-0.49 -1)"/>
  <path class="cls-1" d="M21.45,53.48V29.62h4.11V53.48Z" transform="translate(-0.49 -1)"/>
  <path class="cls-1" d="M56.19,34.22l-.08,19.26h-4.9v-2h-.1a6.59,6.59,0,0,1-1.85,1.59,5.53,5.53,0,0,1-2.76.62,6.36,6.36,0,0,1-1.82-.26A4.38,4.38,0,0,1,43,52.6a4.43,4.43,0,0,1-1.15-1.55,5.56,5.56,0,0,1-.43-2.32c0-5.64.33-19.51.42-21.67,0,.41,3.83,2.3,4.6,2.56L46.36,47.2A2.46,2.46,0,0,0,47,49a2.37,2.37,0,0,0,1.78.65,2.21,2.21,0,0,0,1.92-.73,3.52,3.52,0,0,0,.53-2.09l.38-14.88Z" transform="translate(-0.49 -1)"/>
  <circle class="cls-1" cx="22.96" cy="18.41" r="2.43"/>
  <path class="cls-1" d="M33.29,38.44h-3.8Q29,24.51,28.43,10.57c.3-2.28,1.43-4,2.75-4.18,1.52-.25,3,1.52,3.38,4.18Z" transform="translate(-0.49 -1)"/>
  <rect class="cls-1" x="29.73" y="36.03" width="2.04" height="14.05"/>
  <path class="cls-1" d="M39.58,53.52c-2.2.11-4.65-.14-8.57-.14-.4,0-1.21-.85-.74-2.3L39.58,51Z" transform="translate(-0.49 -1)"/>
  <rect class="cls-2" x="1.41" y="53.66" width="60.17" height="4.34"/>
</svg>
